<svg width="182" height="138" viewBox="0 0 182 138" fill="none" xmlns="http://www.w3.org/2000/svg">
<path d="M45.0633 46.5613C46.2028 46.5613 47.1265 45.6376 47.1265 44.4981C47.1265 43.3586 46.2028 42.4348 45.0633 42.4348C43.9238 42.4348 43 43.3586 43 44.4981C43 45.6376 43.9238 46.5613 45.0633 46.5613Z" fill="#00AFCA"/>
<path d="M51.0554 40.573C52.195 40.573 53.1187 39.6493 53.1187 38.5098C53.1187 37.3703 52.195 36.4465 51.0554 36.4465C49.9159 36.4465 48.9922 37.3703 48.9922 38.5098C48.9922 39.6493 49.9159 40.573 51.0554 40.573Z" fill="#00AFCA"/>
<path d="M58.5065 31.0607C59.3123 31.8665 59.3123 33.1726 58.5065 33.9785C57.7007 34.7843 56.3946 34.7843 55.5887 33.9785C54.7829 33.1726 54.7829 31.8665 55.5887 31.0607C56.3946 30.2548 57.7007 30.2548 58.5065 31.0607Z" fill="#00AFCA"/>
<path d="M63.032 28.5906C64.1715 28.5906 65.0953 27.6669 65.0953 26.5274C65.0953 25.3879 64.1715 24.4641 63.032 24.4641C61.8925 24.4641 60.9688 25.3879 60.9688 26.5274C60.9688 27.6669 61.8925 28.5906 63.032 28.5906Z" fill="#00AFCA"/>
<path d="M69.032 22.5965C70.1715 22.5965 71.0953 21.6727 71.0953 20.5332C71.0953 19.3937 70.1715 18.47 69.032 18.47C67.8925 18.47 66.9688 19.3937 66.9688 20.5332C66.9688 21.6727 67.8925 22.5965 69.032 22.5965Z" fill="#00AFCA"/>
<path d="M75.0242 16.6082C76.1637 16.6082 77.0875 15.6845 77.0875 14.5449C77.0875 13.4054 76.1637 12.4817 75.0242 12.4817C73.8847 12.4817 72.9609 13.4054 72.9609 14.5449C72.9609 15.6845 73.8847 16.6082 75.0242 16.6082Z" fill="#00AFCA"/>
<path d="M82.4753 7.09582C83.2811 7.90164 83.2811 9.20778 82.4753 10.0136C81.6695 10.8194 80.3633 10.8194 79.5575 10.0136C78.7517 9.20778 78.7517 7.90164 79.5575 7.09582C80.3633 6.29 81.6695 6.29 82.4753 7.09582Z" fill="#00AFCA"/>
<path d="M87.0086 4.62578C88.1481 4.62578 89.0718 3.70203 89.0718 2.56252C89.0718 1.42302 88.1481 0.499268 87.0086 0.499268C85.8691 0.499268 84.9453 1.42302 84.9453 2.56252C84.9453 3.70203 85.8691 4.62578 87.0086 4.62578Z" fill="#00AFCA"/>
<path d="M58.5065 43.0392C59.3123 43.845 59.3123 45.1511 58.5065 45.957C57.7007 46.7628 56.3946 46.7628 55.5887 45.957C54.7829 45.1511 54.7829 43.845 55.5887 43.0392C56.3946 42.2334 57.7007 42.2334 58.5065 43.0392Z" fill="#00AFCA"/>
<path d="M63.032 40.573C64.1715 40.573 65.0953 39.6493 65.0953 38.5098C65.0953 37.3703 64.1715 36.4465 63.032 36.4465C61.8925 36.4465 60.9688 37.3703 60.9688 38.5098C60.9688 39.6493 61.8925 40.573 63.032 40.573Z" fill="#00AFCA"/>
<path d="M69.032 34.5828C70.1715 34.5828 71.0953 33.6591 71.0953 32.5196C71.0953 31.38 70.1715 30.4563 69.032 30.4563C67.8925 30.4563 66.9688 31.38 66.9688 32.5196C66.9688 33.6591 67.8925 34.5828 69.032 34.5828Z" fill="#00AFCA"/>
<path d="M75.0242 28.5906C76.1637 28.5906 77.0875 27.6669 77.0875 26.5274C77.0875 25.3879 76.1637 24.4641 75.0242 24.4641C73.8847 24.4641 72.9609 25.3879 72.9609 26.5274C72.9609 27.6669 73.8847 28.5906 75.0242 28.5906Z" fill="#00AFCA"/>
<path d="M82.4753 19.0743C83.2811 19.8802 83.2811 21.1863 82.4753 21.9921C81.6695 22.7979 80.3633 22.7979 79.5575 21.9921C78.7517 21.1863 78.7517 19.8802 79.5575 19.0743C80.3633 18.2685 81.6695 18.2685 82.4753 19.0743Z" fill="#00AFCA"/>
<path d="M87.0086 16.6082C88.1481 16.6082 89.0718 15.6845 89.0718 14.5449C89.0718 13.4054 88.1481 12.4817 87.0086 12.4817C85.8691 12.4817 84.9453 13.4054 84.9453 14.5449C84.9453 15.6845 85.8691 16.6082 87.0086 16.6082Z" fill="#00AFCA"/>
<path d="M92.993 10.618C94.1325 10.618 95.0562 9.69422 95.0562 8.55471C95.0562 7.41521 94.1325 6.49146 92.993 6.49146C91.8535 6.49146 90.9297 7.41521 90.9297 8.55471C90.9297 9.69422 91.8535 10.618 92.993 10.618Z" fill="#00AFCA"/>
<path d="M63.032 52.5516C64.1715 52.5516 65.0953 51.6278 65.0953 50.4883C65.0953 49.3488 64.1715 48.425 63.032 48.425C61.8925 48.425 60.9688 49.3488 60.9688 50.4883C60.9688 51.6278 61.8925 52.5516 63.032 52.5516Z" fill="#00AFCA"/>
<path d="M69.032 46.5613C70.1715 46.5613 71.0953 45.6376 71.0953 44.4981C71.0953 43.3586 70.1715 42.4348 69.032 42.4348C67.8925 42.4348 66.9688 43.3586 66.9688 44.4981C66.9688 45.6376 67.8925 46.5613 69.032 46.5613Z" fill="#00AFCA"/>
<path d="M75.0242 40.573C76.1637 40.573 77.0875 39.6493 77.0875 38.5098C77.0875 37.3703 76.1637 36.4465 75.0242 36.4465C73.8847 36.4465 72.9609 37.3703 72.9609 38.5098C72.9609 39.6493 73.8847 40.573 75.0242 40.573Z" fill="#00AFCA"/>
<path d="M82.4753 31.0607C83.2811 31.8665 83.2811 33.1726 82.4753 33.9785C81.6695 34.7843 80.3633 34.7843 79.5575 33.9785C78.7517 33.1726 78.7517 31.8665 79.5575 31.0607C80.3633 30.2548 81.6695 30.2548 82.4753 31.0607Z" fill="#00AFCA"/>
<path d="M87.0086 28.5906C88.1481 28.5906 89.0718 27.6669 89.0718 26.5274C89.0718 25.3879 88.1481 24.4641 87.0086 24.4641C85.8691 24.4641 84.9453 25.3879 84.9453 26.5274C84.9453 27.6669 85.8691 28.5906 87.0086 28.5906Z" fill="#00AFCA"/>
<path d="M92.993 22.5965C94.1325 22.5965 95.0562 21.6727 95.0562 20.5332C95.0562 19.3937 94.1325 18.47 92.993 18.47C91.8535 18.47 90.9297 19.3937 90.9297 20.5332C90.9297 21.6727 91.8535 22.5965 92.993 22.5965Z" fill="#00AFCA"/>
<path d="M98.9773 16.6082C100.117 16.6082 101.041 15.6845 101.041 14.5449C101.041 13.4054 100.117 12.4817 98.9773 12.4817C97.8378 12.4817 96.9141 13.4054 96.9141 14.5449C96.9141 15.6845 97.8378 16.6082 98.9773 16.6082Z" fill="#00AFCA"/>
<path d="M69.032 58.5457C70.1715 58.5457 71.0953 57.622 71.0953 56.4825C71.0953 55.343 70.1715 54.4192 69.032 54.4192C67.8925 54.4192 66.9688 55.343 66.9688 56.4825C66.9688 57.622 67.8925 58.5457 69.032 58.5457Z" fill="#00AFCA"/>
<path d="M75.0242 52.5516C76.1637 52.5516 77.0875 51.6278 77.0875 50.4883C77.0875 49.3488 76.1637 48.425 75.0242 48.425C73.8847 48.425 72.9609 49.3488 72.9609 50.4883C72.9609 51.6278 73.8847 52.5516 75.0242 52.5516Z" fill="#00AFCA"/>
<path d="M82.4753 43.0392C83.2811 43.845 83.2811 45.1511 82.4753 45.957C81.6695 46.7628 80.3633 46.7628 79.5575 45.957C78.7517 45.1511 78.7517 43.845 79.5575 43.0392C80.3633 42.2334 81.6695 42.2334 82.4753 43.0392Z" fill="#00AFCA"/>
<path d="M87.0086 40.573C88.1481 40.573 89.0718 39.6493 89.0718 38.5098C89.0718 37.3703 88.1481 36.4465 87.0086 36.4465C85.8691 36.4465 84.9453 37.3703 84.9453 38.5098C84.9453 39.6493 85.8691 40.573 87.0086 40.573Z" fill="#00AFCA"/>
<path d="M92.993 34.5828C94.1325 34.5828 95.0562 33.6591 95.0562 32.5196C95.0562 31.38 94.1325 30.4563 92.993 30.4563C91.8535 30.4563 90.9297 31.38 90.9297 32.5196C90.9297 33.6591 91.8535 34.5828 92.993 34.5828Z" fill="#00AFCA"/>
<path d="M98.9773 28.5906C100.117 28.5906 101.041 27.6669 101.041 26.5274C101.041 25.3879 100.117 24.4641 98.9773 24.4641C97.8378 24.4641 96.9141 25.3879 96.9141 26.5274C96.9141 27.6669 97.8378 28.5906 98.9773 28.5906Z" fill="#00AFCA"/>
<path d="M106.428 19.0743C107.234 19.8802 107.234 21.1863 106.428 21.9921C105.623 22.7979 104.316 22.7979 103.511 21.9921C102.705 21.1863 102.705 19.8802 103.511 19.0743C104.316 18.2685 105.623 18.2685 106.428 19.0743Z" fill="#00AFCA"/>
<path d="M75.0242 64.536C76.1637 64.536 77.0875 63.6122 77.0875 62.4727C77.0875 61.3332 76.1637 60.4094 75.0242 60.4094C73.8847 60.4094 72.9609 61.3332 72.9609 62.4727C72.9609 63.6122 73.8847 64.536 75.0242 64.536Z" fill="#00AFCA"/>
<path d="M82.4753 55.0236C83.2811 55.8294 83.2811 57.1355 82.4753 57.9413C81.6695 58.7472 80.3633 58.7472 79.5575 57.9413C78.7517 57.1355 78.7517 55.8294 79.5575 55.0236C80.3633 54.2177 81.6695 54.2177 82.4753 55.0236Z" fill="#00AFCA"/>
<path d="M87.0086 52.5516C88.1481 52.5516 89.0718 51.6278 89.0718 50.4883C89.0718 49.3488 88.1481 48.425 87.0086 48.425C85.8691 48.425 84.9453 49.3488 84.9453 50.4883C84.9453 51.6278 85.8691 52.5516 87.0086 52.5516Z" fill="#00AFCA"/>
<path d="M92.993 46.5613C94.1325 46.5613 95.0562 45.6376 95.0562 44.4981C95.0562 43.3586 94.1325 42.4348 92.993 42.4348C91.8535 42.4348 90.9297 43.3586 90.9297 44.4981C90.9297 45.6376 91.8535 46.5613 92.993 46.5613Z" fill="#00AFCA"/>
<path d="M98.9773 40.573C100.117 40.573 101.041 39.6493 101.041 38.5098C101.041 37.3703 100.117 36.4465 98.9773 36.4465C97.8378 36.4465 96.9141 37.3703 96.9141 38.5098C96.9141 39.6493 97.8378 40.573 98.9773 40.573Z" fill="#00AFCA"/>
<path d="M106.428 31.0607C107.234 31.8665 107.234 33.1726 106.428 33.9785C105.623 34.7843 104.316 34.7843 103.511 33.9785C102.705 33.1726 102.705 31.8665 103.511 31.0607C104.316 30.2548 105.623 30.2548 106.428 31.0607Z" fill="#00AFCA"/>
<path d="M110.962 28.5904C112.101 28.5904 113.025 27.6666 113.025 26.5271C113.025 25.3876 112.101 24.4639 110.962 24.4639C109.822 24.4639 108.898 25.3876 108.898 26.5271C108.898 27.6666 109.822 28.5904 110.962 28.5904Z" fill="#00AFCA"/>
<path d="M82.4753 67.004C83.2811 67.8098 83.2811 69.116 82.4753 69.9218C81.6695 70.7276 80.3633 70.7276 79.5575 69.9218C78.7517 69.116 78.7517 67.8098 79.5575 67.004C80.3633 66.1982 81.6695 66.1982 82.4753 67.004Z" fill="#00AFCA"/>
<path d="M87.0086 64.536C88.1481 64.536 89.0718 63.6122 89.0718 62.4727C89.0718 61.3332 88.1481 60.4094 87.0086 60.4094C85.8691 60.4094 84.9453 61.3332 84.9453 62.4727C84.9453 63.6122 85.8691 64.536 87.0086 64.536Z" fill="#00AFCA"/>
<path d="M92.993 58.5457C94.1325 58.5457 95.0562 57.622 95.0562 56.4825C95.0562 55.343 94.1325 54.4192 92.993 54.4192C91.8535 54.4192 90.9297 55.343 90.9297 56.4825C90.9297 57.622 91.8535 58.5457 92.993 58.5457Z" fill="#00AFCA"/>
<path d="M98.9773 52.5516C100.117 52.5516 101.041 51.6278 101.041 50.4883C101.041 49.3488 100.117 48.425 98.9773 48.425C97.8378 48.425 96.9141 49.3488 96.9141 50.4883C96.9141 51.6278 97.8378 52.5516 98.9773 52.5516Z" fill="#00AFCA"/>
<path d="M106.428 43.0392C107.234 43.845 107.234 45.1511 106.428 45.957C105.623 46.7628 104.316 46.7628 103.511 45.957C102.705 45.1511 102.705 43.845 103.511 43.0392C104.316 42.2334 105.623 42.2334 106.428 43.0392Z" fill="#00AFCA"/>
<path d="M110.962 40.573C112.101 40.573 113.025 39.6493 113.025 38.5098C113.025 37.3703 112.101 36.4465 110.962 36.4465C109.822 36.4465 108.898 37.3703 108.898 38.5098C108.898 39.6493 109.822 40.573 110.962 40.573Z" fill="#00AFCA"/>
<path d="M116.954 34.5828C118.093 34.5828 119.017 33.6591 119.017 32.5196C119.017 31.38 118.093 30.4563 116.954 30.4563C115.814 30.4563 114.891 31.38 114.891 32.5196C114.891 33.6591 115.814 34.5828 116.954 34.5828Z" fill="#00AFCA"/>
<path d="M87.0086 76.5164C88.1481 76.5164 89.0718 75.5927 89.0718 74.4532C89.0718 73.3137 88.1481 72.3899 87.0086 72.3899C85.8691 72.3899 84.9453 73.3137 84.9453 74.4532C84.9453 75.5927 85.8691 76.5164 87.0086 76.5164Z" fill="#00AFCA"/>
<path d="M92.993 70.5262C94.1325 70.5262 95.0562 69.6024 95.0562 68.4629C95.0562 67.3234 94.1325 66.3997 92.993 66.3997C91.8535 66.3997 90.9297 67.3234 90.9297 68.4629C90.9297 69.6024 91.8535 70.5262 92.993 70.5262Z" fill="#00AFCA"/>
<path d="M98.9773 64.536C100.117 64.536 101.041 63.6122 101.041 62.4727C101.041 61.3332 100.117 60.4094 98.9773 60.4094C97.8378 60.4094 96.9141 61.3332 96.9141 62.4727C96.9141 63.6122 97.8378 64.536 98.9773 64.536Z" fill="#00AFCA"/>
<path d="M106.428 55.0236C107.234 55.8294 107.234 57.1355 106.428 57.9413C105.623 58.7472 104.316 58.7472 103.511 57.9413C102.705 57.1355 102.705 55.8294 103.511 55.0236C104.316 54.2177 105.623 54.2177 106.428 55.0236Z" fill="#00AFCA"/>
<path d="M110.962 52.5516C112.101 52.5516 113.025 51.6278 113.025 50.4883C113.025 49.3488 112.101 48.425 110.962 48.425C109.822 48.425 108.898 49.3488 108.898 50.4883C108.898 51.6278 109.822 52.5516 110.962 52.5516Z" fill="#00AFCA"/>
<path d="M116.954 46.5613C118.093 46.5613 119.017 45.6376 119.017 44.4981C119.017 43.3586 118.093 42.4348 116.954 42.4348C115.814 42.4348 114.891 43.3586 114.891 44.4981C114.891 45.6376 115.814 46.5613 116.954 46.5613Z" fill="#00AFCA"/>
<path d="M122.938 40.573C124.078 40.573 125.002 39.6493 125.002 38.5098C125.002 37.3703 124.078 36.4465 122.938 36.4465C121.799 36.4465 120.875 37.3703 120.875 38.5098C120.875 39.6493 121.799 40.573 122.938 40.573Z" fill="#00AFCA"/>
<path d="M92.993 82.5086C94.1325 82.5086 95.0562 81.5849 95.0562 80.4454C95.0562 79.3058 94.1325 78.3821 92.993 78.3821C91.8535 78.3821 90.9297 79.3058 90.9297 80.4454C90.9297 81.5849 91.8535 82.5086 92.993 82.5086Z" fill="#00AFCA"/>
<path d="M98.9773 76.5164C100.117 76.5164 101.041 75.5927 101.041 74.4532C101.041 73.3137 100.117 72.3899 98.9773 72.3899C97.8378 72.3899 96.9141 73.3137 96.9141 74.4532C96.9141 75.5927 97.8378 76.5164 98.9773 76.5164Z" fill="#00AFCA"/>
<path d="M106.428 67.004C107.234 67.8098 107.234 69.116 106.428 69.9218C105.623 70.7276 104.316 70.7276 103.511 69.9218C102.705 69.116 102.705 67.8098 103.511 67.004C104.316 66.1982 105.623 66.1982 106.428 67.004Z" fill="#00AFCA"/>
<path d="M110.962 64.536C112.101 64.536 113.025 63.6122 113.025 62.4727C113.025 61.3332 112.101 60.4094 110.962 60.4094C109.822 60.4094 108.898 61.3332 108.898 62.4727C108.898 63.6122 109.822 64.536 110.962 64.536Z" fill="#00AFCA"/>
<path d="M116.954 58.5457C118.093 58.5457 119.017 57.622 119.017 56.4825C119.017 55.343 118.093 54.4192 116.954 54.4192C115.814 54.4192 114.891 55.343 114.891 56.4825C114.891 57.622 115.814 58.5457 116.954 58.5457Z" fill="#00AFCA"/>
<path d="M122.938 52.5516C124.078 52.5516 125.002 51.6278 125.002 50.4883C125.002 49.3488 124.078 48.425 122.938 48.425C121.799 48.425 120.875 49.3488 120.875 50.4883C120.875 51.6278 121.799 52.5516 122.938 52.5516Z" fill="#00AFCA"/>
<path d="M130.389 43.0392C131.195 43.845 131.195 45.1511 130.389 45.957C129.584 46.7628 128.277 46.7628 127.472 45.957C126.666 45.1511 126.666 43.845 127.472 43.0392C128.277 42.2334 129.584 42.2334 130.389 43.0392Z" fill="#00AFCA"/>
<path d="M51.0554 52.5516C52.195 52.5516 53.1187 51.6278 53.1187 50.4883C53.1187 49.3488 52.195 48.425 51.0554 48.425C49.9159 48.425 48.9922 49.3488 48.9922 50.4883C48.9922 51.6278 49.9159 52.5516 51.0554 52.5516Z" fill="#00AFCA"/>
<path d="M58.5065 57.9413C57.7007 58.7472 56.3946 58.7472 55.5887 57.9413C54.7829 57.1355 54.7829 55.8294 55.5887 55.0236C56.3946 54.2177 57.7007 54.2177 58.5065 55.0236C59.3123 55.8294 59.3123 57.1355 58.5065 57.9413Z" fill="#00AFCA"/>
<path d="M63.032 64.536C64.1715 64.536 65.0953 63.6122 65.0953 62.4727C65.0953 61.3332 64.1715 60.4094 63.032 60.4094C61.8925 60.4094 60.9688 61.3332 60.9688 62.4727C60.9688 63.6122 61.8925 64.536 63.032 64.536Z" fill="#00AFCA"/>
<path d="M69.032 70.5262C70.1715 70.5262 71.0953 69.6024 71.0953 68.4629C71.0953 67.3234 70.1715 66.3997 69.032 66.3997C67.8925 66.3997 66.9688 67.3234 66.9688 68.4629C66.9688 69.6024 67.8925 70.5262 69.032 70.5262Z" fill="#00AFCA"/>
<path d="M75.0242 76.5164C76.1637 76.5164 77.0875 75.5927 77.0875 74.4532C77.0875 73.3137 76.1637 72.3899 75.0242 72.3899C73.8847 72.3899 72.9609 73.3137 72.9609 74.4532C72.9609 75.5927 73.8847 76.5164 75.0242 76.5164Z" fill="#00AFCA"/>
<path d="M82.4753 81.9042C81.6695 82.71 80.3633 82.71 79.5575 81.9042C78.7517 81.0984 78.7517 79.7923 79.5575 78.9864C80.3633 78.1806 81.6695 78.1806 82.4753 78.9864C83.2811 79.7912 83.2811 81.0984 82.4753 81.9042Z" fill="#00AFCA"/>
<path d="M87.0086 88.5008C88.1481 88.5008 89.0718 87.577 89.0718 86.4375C89.0718 85.298 88.1481 84.3743 87.0086 84.3743C85.8691 84.3743 84.9453 85.298 84.9453 86.4375C84.9453 87.577 85.8691 88.5008 87.0086 88.5008Z" fill="#00AFCA"/>
<mask id="mask0_5201_280" style="mask-type:luminance" maskUnits="userSpaceOnUse" x="17" y="48" width="69" height="69">
<path d="M85.4079 104.642L28.839 48.0731C13.2177 63.6944 13.2182 89.0209 28.839 104.642C44.4598 120.262 69.7871 120.263 85.4079 104.642Z" fill="white"/>
</mask>
<g mask="url(#mask0_5201_280)">
<path d="M84.8594 198.5V-3.85938H81.9126V198.5H84.8594Z" fill="#F6B704" fill-opacity="0.64"/>
<path d="M78.9531 192.592V-9.76758H76.0063V192.592H78.9531Z" fill="#F6B704" fill-opacity="0.64"/>
<path d="M73.0547 186.698V-15.6621H70.1079V186.698H73.0547Z" fill="#F6B704" fill-opacity="0.64"/>
<path d="M67.1328 180.801V-21.5586H64.186V180.801H67.1328Z" fill="#F6B704" fill-opacity="0.64"/>
<path d="M61.2422 174.889V-27.4707H58.2954V174.889H61.2422Z" fill="#F6B704" fill-opacity="0.64"/>
<path d="M55.3359 168.991V-33.3691H52.3892V168.991H55.3359Z" fill="#F6B704" fill-opacity="0.64"/>
<path d="M49.4297 163.092V-39.2676H46.4829V163.092H49.4297Z" fill="#F6B704" fill-opacity="0.64"/>
<path d="M43.5312 157.182V-45.1777H40.5845V157.182H43.5312Z" fill="#F6B704" fill-opacity="0.64"/>
<path d="M37.6328 151.272V-51.0879H34.686V151.272H37.6328Z" fill="#F6B704" fill-opacity="0.64"/>
<path d="M31.7188 145.374V-56.9863H28.772V145.374H31.7188Z" fill="#F6B704" fill-opacity="0.64"/>
<path d="M25.8125 139.475V-62.8848H22.8657V139.475H25.8125Z" fill="#F6B704" fill-opacity="0.64"/>
<path d="M19.9062 133.575V-68.7852H16.9595V133.575H19.9062Z" fill="#F6B704" fill-opacity="0.64"/>
</g>
<mask id="mask1_5201_280" style="mask-type:luminance" maskUnits="userSpaceOnUse" x="88" y="47" width="68" height="70">
<path d="M143.608 47.833L88.035 105.381C103.926 120.727 129.249 120.284 144.595 104.393C159.941 88.5024 159.499 63.1788 143.608 47.833Z" fill="white"/>
</mask>
<g mask="url(#mask1_5201_280)">
<path d="M237.458 46.7457L35.1289 50.2773L35.1803 53.2237L237.509 49.692L237.458 46.7457Z" fill="#007BFF" fill-opacity="0.64"/>
<path d="M231.657 52.7569L29.3276 56.2886L29.3791 59.2349L231.708 55.7032L231.657 52.7569Z" fill="#007BFF" fill-opacity="0.64"/>
<path d="M225.868 58.7569L23.5391 62.2886L23.5905 65.2349L225.92 61.7032L225.868 58.7569Z" fill="#007BFF" fill-opacity="0.64"/>
<path d="M220.071 64.7696L17.7422 68.3013L17.7936 71.2476L220.123 67.7159L220.071 64.7696Z" fill="#007BFF" fill-opacity="0.64"/>
<path d="M214.267 70.7711L11.9375 74.3027L11.9889 77.2491L214.318 73.7174L214.267 70.7711Z" fill="#007BFF" fill-opacity="0.64"/>
<path d="M208.47 76.7764L6.14062 80.3081L6.19205 83.2544L208.521 79.7228L208.47 76.7764Z" fill="#007BFF" fill-opacity="0.64"/>
<path d="M202.677 82.7779L0.347656 86.3096L0.399085 89.2559L202.728 85.7242L202.677 82.7779Z" fill="#007BFF" fill-opacity="0.64"/>
<path d="M196.868 88.7867L-5.46094 92.3184L-5.40951 95.2647L196.92 91.733L196.868 88.7867Z" fill="#007BFF" fill-opacity="0.64"/>
<path d="M191.063 94.794L-11.2656 98.3257L-11.2142 101.272L191.115 97.7403L191.063 94.794Z" fill="#007BFF" fill-opacity="0.64"/>
<path d="M185.27 100.803L-17.0586 104.335L-17.0072 107.281L185.322 103.75L185.27 100.803Z" fill="#007BFF" fill-opacity="0.64"/>
<path d="M179.474 106.81L-22.8555 110.342L-22.804 113.288L179.525 109.756L179.474 106.81Z" fill="#007BFF" fill-opacity="0.64"/>
<path d="M173.677 112.819L-28.6523 116.351L-28.6009 119.297L173.728 115.766L173.677 112.819Z" fill="#007BFF" fill-opacity="0.64"/>
</g>
</svg>
