<svg width="106" height="16" viewBox="0 0 106 16" fill="none" xmlns="http://www.w3.org/2000/svg">
<path d="M104.909 7.15584C101.617 7.15584 99.9212 5.69037 98.4247 4.39786C97.0425 3.20305 95.848 2.17107 93.3716 2.17107C90.8946 2.17107 89.7 3.20305 88.3178 4.39786C86.8214 5.69037 85.1256 7.15584 81.8338 7.15584C78.5419 7.15584 76.8469 5.69037 75.3504 4.39786C73.9682 3.20305 72.7737 2.17107 70.2981 2.17107C67.8225 2.17107 66.6279 3.20305 65.2457 4.39786C63.7493 5.69037 62.0543 7.15584 58.7624 7.15584C55.4705 7.15584 53.7755 5.69037 52.2791 4.39786C50.8968 3.20305 49.7023 2.17107 47.2267 2.17107C44.7511 2.17107 43.5573 3.20304 42.1758 4.39713C40.6794 5.69036 38.9836 7.15655 35.6917 7.15655C32.4006 7.15655 30.7048 5.69109 29.2091 4.39713C27.8269 3.20304 26.6331 2.17107 24.1575 2.17107C21.6819 2.17107 20.4888 3.20304 19.1066 4.39713C17.6109 5.69036 15.9151 7.15655 12.624 7.15655C9.33289 7.15655 7.63785 5.69109 6.14215 4.39713C4.76066 3.20304 3.56685 2.17107 1.09122 2.17107C0.488141 2.17107 0 1.68475 0 1.08553C0 0.486319 0.488141 0 1.09122 0C4.38235 0 6.07739 1.46546 7.57383 2.75942C8.95604 3.95351 10.1491 4.98548 12.624 4.98548C15.0996 4.98548 16.2927 3.95351 17.6749 2.75942C19.1706 1.46619 20.8664 0 24.1575 0C27.4486 0 29.1444 1.46546 30.6401 2.75942C32.0223 3.95351 33.2161 4.98548 35.6917 4.98548C38.1681 4.98548 39.3619 3.9535 40.7441 2.75869C42.2398 1.46618 43.9356 0 47.2267 0C50.5186 0 52.2136 1.46546 53.71 2.75869C55.0922 3.9535 56.2868 4.98548 58.7624 4.98548C61.238 4.98548 62.4325 3.9535 63.8147 2.75869C65.3112 1.46618 67.0062 0 70.2981 0C73.5899 0 75.285 1.46546 76.7814 2.75869C78.1636 3.9535 79.3581 4.98548 81.8338 4.98548C84.3101 4.98548 85.5046 3.95351 86.8869 2.75942C88.3833 1.46619 90.0791 0 93.3716 0C96.6635 0 98.36 1.46546 99.8557 2.75869C101.238 3.9535 102.432 4.98548 104.909 4.98548C105.511 4.98548 106 5.4718 106 6.07102C106 6.66951 105.511 7.15584 104.909 7.15584Z" fill="#F6B704"/>
<path d="M104.909 16.0008C101.617 16.0008 99.9212 14.5361 98.4247 13.2428C97.0425 12.0487 95.848 11.0168 93.3716 11.0168C90.8946 11.0168 89.7 12.0487 88.3178 13.2428C86.8214 14.5361 85.1256 16.0008 81.8338 16.0008C78.5426 16.0008 76.8469 14.5353 75.3504 13.2428C73.9682 12.0487 72.7744 11.0168 70.2981 11.0168C67.8217 11.0168 66.6279 12.0487 65.2457 13.2428C63.7493 14.5353 62.0543 16.0008 58.7624 16.0008C55.4713 16.0008 53.7755 14.5353 52.2791 13.2428C50.8968 12.0487 49.7023 11.0168 47.2267 11.0168C44.7511 11.0168 43.5573 12.0487 42.1751 13.2428C40.6794 14.5353 38.9836 16.0008 35.6917 16.0008C32.4006 16.0008 30.7048 14.5353 29.2091 13.2428C27.8269 12.0487 26.6331 11.0168 24.1575 11.0168C21.6819 11.0168 20.4888 12.0487 19.1066 13.2428C17.6109 14.5353 15.9151 16.0008 12.624 16.0008C9.33289 16.0008 7.63785 14.5353 6.14215 13.2428C4.76066 12.0487 3.56685 11.0168 1.09122 11.0168C0.488141 11.0168 0 10.5305 0 9.93124C0 9.33202 0.488141 8.8457 1.09122 8.8457C4.38235 8.8457 6.07739 10.3112 7.57383 11.6044C8.95604 12.7985 10.1491 13.8305 12.624 13.8305C15.0996 13.8305 16.2927 12.7985 17.6749 11.6044C19.1706 10.3119 20.8664 8.8457 24.1575 8.8457C27.4486 8.8457 29.1444 10.3112 30.6401 11.6044C32.0223 12.7985 33.2161 13.8305 35.6917 13.8305C38.1681 13.8305 39.3619 12.7985 40.7441 11.6044C42.2398 10.3112 43.9356 8.8457 47.2267 8.8457C50.5178 8.8457 52.2136 10.3112 53.71 11.6044C55.0922 12.7985 56.286 13.8305 58.7624 13.8305C61.2388 13.8305 62.4325 12.7985 63.8147 11.6044C65.3112 10.3119 67.0062 8.8457 70.2981 8.8457C73.5892 8.8457 75.285 10.3112 76.7814 11.6044C78.1636 12.7985 79.3581 13.8305 81.8338 13.8305C84.3101 13.8305 85.5046 12.7985 86.8869 11.6044C88.3833 10.3119 90.0791 8.8457 93.3716 8.8457C96.6635 8.8457 98.36 10.3105 99.8557 11.6044C101.238 12.7985 102.432 13.8305 104.909 13.8305C105.511 13.8305 106 14.3168 106 14.916C106 15.5152 105.511 16.0008 104.909 16.0008Z" fill="#01B97B"/>
</svg>
