<svg width="1092" height="327" viewBox="0 0 1092 327" fill="none" xmlns="http://www.w3.org/2000/svg">
  <path
    d="M1056.07 465.801H1055.68C1039.51 448.585 1023.66 430.979 1007.87 413.431C955.737 355.498 904.189 298.19 843.793 258.293C704.59 166.299 518.365 166.944 169.856 465.801H169.415C518.226 166.631 704.613 166.007 844.002 258.078C904.421 297.995 955.993 355.303 1008.12 413.275C1023.96 430.881 1039.86 448.546 1056.07 465.801ZM1069.79 465.801H1069.38C1048.76 445.677 1028.56 424.791 1008.35 403.925C952.324 346.012 896.48 288.274 832.485 247.733C682.368 152.675 487.25 152.246 139.322 465.82H138.881C487.111 151.914 682.414 152.343 832.694 247.518C896.735 288.079 952.579 345.817 1008.63 403.75C1028.86 424.674 1049.13 445.618 1069.79 465.801ZM1085.98 465.801H1085.54C1060.13 443.022 1035.22 418.935 1010.23 394.79C949.979 336.584 889.421 278.046 821.177 236.744C659.682 139.031 455.184 137.88 110.204 465.781H109.786C455.021 137.548 659.729 138.699 821.363 236.529C889.63 277.851 950.211 336.389 1010.47 394.615C1035.52 418.818 1060.51 442.963 1085.98 465.801ZM1104.6 465.801H1104.16C1073.76 440.68 1043.81 413.49 1013.65 386.124C948.725 327.235 882.826 267.447 809.59 225.247C636.323 125.426 421.979 124.08 82.549 465.801H82.131C421.816 123.748 636.346 125.114 809.753 225.032C883.012 267.252 948.934 327.039 1013.88 385.948C1044.11 413.372 1074.14 440.621 1104.6 465.801ZM1117 459.106V459.457C1084.31 434.024 1051.73 406.189 1018.76 377.984C948.562 317.963 876.51 256.361 797.307 213.087C612.011 111.821 387.544 111.002 56.3801 465.801H55.9853C387.381 110.67 612.011 111.509 797.493 212.872C876.719 256.165 948.794 317.787 1018.99 377.809C1051.89 405.936 1084.38 433.731 1117 459.106ZM1117 442.241V442.593C1086.93 419.95 1056.63 395.415 1025.84 370.489C949.653 308.828 870.357 244.688 783.979 200.106C586.493 98.2166 351.785 98.8218 31.8133 465.781H31.4186C351.599 98.529 586.469 97.9434 784.141 199.911C870.566 244.493 949.862 308.652 1026.05 370.313C1056.79 395.181 1087.02 419.638 1117 442.241ZM1117 425.338V425.689C1090.2 406.092 1062.97 385.148 1035.17 363.794C952.092 299.908 864.204 232.333 769.095 186.267C559.418 84.7094 314.633 87.813 8.84872 465.801H8.4772C314.447 87.5007 559.418 84.3971 769.257 186.053C864.39 232.137 952.277 299.713 1035.38 363.618C1063.11 384.894 1090.27 405.799 1117 425.338ZM1117 408.395V408.746C1094.22 392.565 1070.95 375.486 1047.18 358.055C956.178 291.3 857.911 219.196 752.214 171.433C530.532 71.2607 276.181 78.1315 -12.3279 465.801H-12.6994C275.972 77.7996 530.532 70.9289 752.376 171.199C858.097 218.981 956.387 291.085 1047.39 357.86C1071.09 375.232 1094.29 392.253 1117 408.395ZM1117 391.413V391.765C1099.17 379.448 1080.92 366.624 1062.29 353.527C962.285 283.219 851.363 205.221 732.755 155.583C499.51 57.9487 236.498 70.0115 -31.6702 465.801H-32.0417C236.289 69.7188 499.487 57.6559 732.918 155.349C851.549 205.006 962.494 283.004 1062.53 353.332C1081.06 366.351 1099.24 379.136 1117 391.413ZM1117 374.393V374.725C1105.27 366.839 1093.36 358.758 1081.22 350.56C971.132 276.016 844.606 190.347 710.209 138.719C467.722 45.5931 199.555 63.3751 -44 457.447V456.861C199.601 63.0628 467.792 45.3394 710.348 138.504C844.769 190.132 971.318 275.821 1081.43 350.365C1093.5 358.524 1105.34 366.566 1117 374.393ZM1117 357.353V357.684C1112.98 355.049 1108.94 352.414 1104.88 349.74C983.88 270.375 837.849 174.615 684.086 120.995C437.722 35.1113 171.412 57.5388 -44 429.007V428.402C171.458 57.2265 437.815 34.8576 684.202 120.761C838.012 174.38 984.042 270.161 1105.06 349.545C1109.08 352.16 1113.05 354.757 1117 357.353ZM1117 340.273V340.605C987.548 257.844 823.894 155.544 653.9 102.511C405.98 25.1566 144.546 52.6786 -44 398.479V397.835C144.639 52.3662 406.073 24.9028 654.016 102.277C823.964 155.291 987.548 257.532 1117 340.273ZM1117 323.155V323.487C980.466 238.286 801.649 133.507 619.303 83.5188C372.683 15.885 119.631 48.56 -44 365.512V364.848C119.724 48.2477 372.776 15.6508 619.419 83.265C801.719 133.253 980.466 237.974 1117 323.155ZM1117 306.037V306.369C958.941 210.022 738.932 90.1553 525.471 53.1275C302.466 14.4406 86.6125 66.2053 -44 329.635V328.952C86.7286 65.8735 302.558 14.1868 525.517 52.8737C738.978 89.882 958.941 209.69 1117 306.037ZM1117 288.879V289.211C955.923 193.216 725.302 75.4379 505.594 39.7959C283.588 3.78314 72.7269 51.6635 -44 290.675V289.973C72.843 51.3512 283.681 3.5489 505.664 39.5422C725.348 75.1841 955.9 192.904 1117 288.879ZM1117 271.703V272.015C953.322 176.625 712.856 61.2865 487.366 26.7376C399.456 13.2694 313.82 12.0788 235.917 29.1385C158.014 46.1982 87.8432 81.5083 30.8381 141.022C2.39355 170.73 -22.7769 206.47 -44 249.002V248.319C-22.8234 206.04 2.25424 170.476 30.5826 140.885C87.6342 81.2936 157.875 45.964 235.824 28.8847C313.774 11.8055 399.456 12.9962 487.413 26.4839C712.879 61.0327 953.299 176.313 1117 271.703ZM1117 254.506V254.819C942.455 155.232 675.147 35.7359 434.564 9.22897C352.04 0.133057 272.651 1.98738 201.226 19.3399C129.825 36.6924 66.3647 69.5431 15.6986 122.44C-6.87122 146.039 -26.9101 173.6 -44 205.572V204.908C-26.9797 173.17 -7.01054 145.746 15.4664 122.284C66.1789 69.3284 129.686 36.4582 201.157 19.0861C272.628 1.7141 352.04 -0.140209 434.611 8.9557C675.17 35.4627 942.409 154.92 1117 254.506ZM1117 237.29V237.603C990.149 166.709 811.657 86.6809 630.1 37.5903C494.449 0.913818 357.079 -18.5077 238.332 -3.92692C119.585 10.6539 19.437 59.2175 -41.8638 158.453C-42.5836 159.624 -43.3034 160.795 -44 161.986V161.4C-43.3731 160.385 -42.7693 159.37 -42.1424 158.355C19.2048 59.0223 119.446 10.4196 238.286 -4.16115C357.102 -18.7419 494.495 0.6796 630.216 37.356C811.703 86.4271 990.149 166.416 1117 237.29ZM1117 220.055V220.367C981.418 146.117 783.909 62.9066 586.911 16.0021C452.769 -15.9312 318.859 -31.0195 204.918 -14.9747C99.8247 -0.179249 11.7048 41.0842 -44 120.039V119.512C11.7744 40.7328 99.8479 -0.472034 204.849 -15.248C318.859 -31.2927 452.792 -16.2044 586.98 15.7484C783.956 62.6333 981.395 145.804 1117 220.055ZM1117 202.8V203.112C972.409 125.465 754.28 39.2299 541.655 -4.76624C409.719 -32.0735 279.896 -43.1213 171.087 -25.7883C81.7595 -11.5589 6.57316 21.8383 -44 81.0789V80.6299C6.6196 21.5065 81.7595 -11.8126 171.04 -26.0421C279.896 -43.3946 409.765 -32.3468 541.724 -5.01999C754.304 38.9761 972.386 125.173 1117 202.8ZM1117 185.526V185.838C963.307 104.873 723.189 15.9045 495.145 -24.5586C365.972 -47.4741 240.7 -54.8523 137.209 -36.4067C63.6711 -23.2899 1.11646 2.86574 -44 45.7493V45.3394C1.13968 2.55343 63.6711 -23.5632 137.162 -36.6605C240.7 -55.1061 366.019 -47.7474 495.215 -24.8124C723.212 15.6508 963.26 104.58 1117 185.526ZM201.273 465.801C548.505 181.583 726.486 179.689 855.52 268.365C912.78 307.715 960.381 364.887 1008.84 423.113C1020.71 437.361 1032.62 451.669 1044.74 465.801H1044.34C1032.27 451.728 1020.4 437.459 1008.56 423.269C960.102 365.063 912.501 307.891 855.287 268.56C726.416 179.982 548.621 181.895 201.714 465.801H201.273Z"
    fill="white"
    fill-opacity="0.4"
  />
</svg>
